<?xml version="1.0" encoding="UTF-8"?>
<svg width="60px" height="60px" viewBox="0 0 60 60" version="1.1" xmlns="http://www.w3.org/2000/svg" xmlns:xlink="http://www.w3.org/1999/xlink">
    <!-- Generator: Sketch 53 (72520) - https://sketchapp.com -->
    <title>pre-vetted-icon</title>
    <desc>Created with Sketch.</desc>
    <g id="pre-vetted-icon" stroke="none" stroke-width="1" fill="none" fill-rule="evenodd">
        <path d="M27.8111963,59.9667229 C35.2948128,59.9667229 45.9350945,60.1159322 51.429748,56.586683 C59.1178748,51.6485526 62.0262494,50.9577368 62.0262494,42.2613201 C62.0262494,34.3303255 57.1824871,34.7260238 51.429748,27.4585755 C47.1339273,22.0316556 39.9884548,13.1644578 31.5832172,13.1644578 C19.6529139,13.1644578 14.8554377,17.276004 9.19979339,25.2322922 C6.34388426,29.2499487 -0.495699001,34.4427229 2.99561856,46.0773384 C6.48693613,57.7119539 9.8564932,59.9667229 27.8111963,59.9667229 Z" id="Oval" fill="#F5F2EE" transform="translate(32.025900, 36.566044) scale(-1, -1) rotate(-36.000000) translate(-32.025900, -36.566044) "></path>
        <path d="M8.19042591,11.2024041 C9.35444658,11.3596646 10.5427053,11.4408868 11.75,11.4408868 C18.3531467,11.4408868 24.3868487,9.01119938 29,5 C33.6131513,9.01119938 39.6468533,11.4408868 46.25,11.4408868 C47.4572947,11.4408868 48.6455534,11.3596646 49.8095741,11.2024041 C49.935552,12.5106549 50,13.8368144 50,15.1779747 C50,30.5474792 41.5361595,43.9469545 29,51 C16.4638405,43.9469545 8,30.5474792 8,15.1779747 C8,13.8368144 8.06444795,12.5106549 8.19042591,11.2024041 Z" id="Combined-Shape" stroke="#060606"></path>
        <polygon id="Star" stroke="#060606" stroke-linecap="round" stroke-linejoin="round" points="29 29.6 23.7099327 33.2811529 25.5761965 27.1124612 20.4404914 23.2188471 26.8839731 23.0875388 29 17 31.1160269 23.0875388 37.5595086 23.2188471 32.4238035 27.1124612 34.2900673 33.2811529"></polygon>
    </g>
</svg>