<svg width="79" height="36" viewBox="0 0 79 36" fill="none" xmlns="http://www.w3.org/2000/svg">
<path fill-rule="evenodd" clip-rule="evenodd" d="M62.2581 29.8321H62.2328C62.107 29.8275 61.9726 29.7533 61.832 29.6C61.1632 29.0208 60.6124 27.5155 61.7533 24.7362C63.0517 21.5323 67.3009 16.2053 66.5142 15.935C66.042 15.7421 64.114 16.7843 61.596 19.4864C59.2747 21.9569 57.3861 25.5469 55.8122 29.1754C55.6549 29.5228 55.4187 29.6772 55.0648 29.3683C54.5043 28.8936 54.2264 28.1905 54.28 27.2206C52.6092 28.6307 50.4181 29.572 48.2245 29.6C45.5887 29.6408 43.8627 28.3166 43.1943 26.326C42.0363 28.3281 39.9744 29.7822 38.0096 29.6772C34.9801 29.5228 33.7604 26.9365 34.744 23.7712C35.5309 21.1849 38.0096 18.3284 39.6621 16.437C37.8916 17.5564 36.1604 17.9424 34.9015 17.9424C33.7997 19.6795 32.1867 20.9919 30.0226 21.0691C29.2357 24.3502 26.7963 28.3261 23.8849 29.2525C22.4685 29.7158 20.4224 29.6386 18.888 27.5926C17.1962 25.3152 17.7863 21.9569 19.4782 18.9074C20.9732 16.2439 23.4521 14.0822 25.8127 13.8893C26.993 13.7735 27.6226 14.1596 28.4489 15.2018C29.3932 16.3982 30.5341 16.63 30.3375 19.4478C30.3375 19.6409 30.2588 19.8338 30.2588 20.0655C31.3604 19.8724 32.5013 19.1391 33.3276 17.6721C30.4161 16.437 34.2718 11.3415 35.8457 11.303C37.2228 11.2644 36.5145 14.0822 35.7276 16.1282C37.1046 15.935 38.4817 15.2789 39.977 14.2753C40.4884 13.9279 40.8426 13.8121 41.1572 14.1982C41.8655 15.0086 42.8491 16.8229 41.6687 18.1353C39.8194 20.1813 37.9309 22.8062 37.2228 24.852C36.4752 26.9751 36.9473 28.4805 38.2064 28.5577C39.7291 28.6697 41.6569 26.2521 42.921 23.5426C43.0358 22.3802 43.4072 21.1315 44.0538 19.8724C46.6112 14.8929 50.6245 12.8855 52.5917 14.005C53.5753 14.584 54.2836 15.1632 54.913 16.0122C55.6213 16.9386 55.3065 19.2934 53.6539 21.2621C51.7261 23.5781 49.0899 24.5819 46.3358 22.3816C45.0769 25.9329 46.0211 28.3647 48.1063 28.4805C50.9453 28.6147 53.4865 26.2985 55.2138 24.0171C56.4047 21.2689 58.7652 16.9386 60.8484 13.8893C61.1239 13.4646 61.4387 13.5032 61.6747 13.8893C62.3436 14.97 62.2255 16.4756 61.6353 18.0196C63.3666 16.0508 66.3173 13.7733 67.7337 13.8121C69.0715 13.8507 69.7798 15.8965 69.2683 17.595C71.1569 15.7807 73.793 13.9665 75.0912 14.005C76.5078 14.0436 76.8225 16.3211 76.0355 18.2511C75.3274 19.9882 73.3995 22.5359 72.4159 24.4659C71.3142 26.6662 71.865 28.4419 73.2814 28.4033C74.8946 28.3647 76.6652 25.817 78.1996 23.1149C78.3964 22.7676 78.711 22.7676 78.9078 23.0377C79.1045 23.308 78.9865 24.5819 78.5537 25.4697C77.4521 27.6698 74.9339 29.6 72.6519 29.6C69.229 29.6 67.9699 26.9365 69.4257 23.7712C70.8814 20.5673 74.3831 16.2439 73.793 16.0508C73.4782 15.935 72.1405 16.3597 69.583 18.8688C66.3173 22.0727 64.3895 25.7784 62.7369 29.4069C62.6009 29.6738 62.4388 29.8254 62.2581 29.8321V29.8321ZM27.8193 19.4478C28.0554 18.3284 28.0947 17.402 28.0161 16.7457C27.8586 15.4718 26.993 15.7807 26.8357 16.9C26.7177 17.8653 27.0718 18.8303 27.8193 19.4478ZM26.088 23.7326C26.7177 22.5745 27.1898 21.5323 27.4653 20.5673C25.9307 19.7181 24.9471 18.1739 24.9078 16.7843C23.8456 17.6721 22.7438 18.946 21.8781 20.4128C20.1864 23.3466 19.6355 26.8593 20.6586 27.7472C21.6815 28.635 24.1208 27.2454 26.088 23.7326ZM47.0047 20.876C46.8867 21.1077 46.7686 21.3392 46.6899 21.5323C48.6178 22.7288 50.231 21.0691 51.3719 19.6021C52.631 17.981 53.4966 15.9736 52.9458 15.549C52.1196 14.8929 48.854 17.2089 47.0047 20.876ZM0 31.9777V31.9602C0.000404469 31.8032 0.0117348 31.6437 0.0345949 31.4827C0.258468 29.9052 1.33599 28.6758 2.99095 28.1092C4.29949 27.6616 5.7322 27.6525 7.7804 28.0796L8.2778 28.1833C9.34678 26.0572 10.711 22.7871 12.3373 18.4524L13.5609 14.9211C11.405 15.6726 8.66349 16.0697 7.65708 16.2153C7.51266 16.2363 7.40383 16.2519 7.33788 16.2628C6.78966 16.3532 6.6578 15.9594 6.63693 15.8797C6.51162 15.3995 6.95829 15.2394 7.31724 15.1106C7.53967 15.0306 7.85471 14.9233 8.22178 14.7982C9.0107 14.529 9.9929 14.1941 10.8345 13.87C11.4655 13.627 11.9148 13.4738 12.2757 13.3509C12.9332 13.1269 13.3465 12.9861 14.2455 12.5164C15.6851 8.12907 16.6985 5.5564 17.525 4.18859C18.473 2.7407 19.4459 1.68817 20.4267 1.04433C21.7097 0.139929 22.7717 -0.146339 24.0771 0.0674274C24.5733 0.148497 24.9946 0.420352 25.2955 0.853547C25.7795 1.55061 25.858 2.52381 25.7261 3.13316C25.0734 6.14549 23.2277 8.54959 19.3569 11.4288L17.3597 13.0564C15.7924 18.292 14.5172 21.9829 13.5692 24.0279C12.6996 25.8495 11.8475 27.473 11.0292 28.8686C12.1548 29.2136 14.3279 30.0346 17.6231 31.3589C17.7977 31.4261 17.9745 31.4953 18.1473 31.5626C20.0366 32.2998 21.4012 32.8324 23.6975 32.73C26.255 32.6155 28.7609 30.771 29.6493 29.5604C30.2317 28.767 30.6361 27.9646 30.9313 27.3789C31.3148 26.6181 31.5462 26.1578 32.0708 26.2685C32.2698 26.31 32.4343 26.4394 32.5342 26.6325C32.7582 27.0659 32.6542 27.915 32.4837 28.3291C31.7772 30.8412 30.2347 32.5825 29.0622 33.6027C27.1673 35.1988 24.9755 36 22.5205 36C21.6801 36.0002 20.8095 35.9063 19.9087 35.7184C18.017 35.324 15.4383 34.2861 12.2437 32.633C10.615 31.9225 9.72416 31.5974 9.23715 31.4534C6.81193 34.3414 4.63061 35.4705 2.39132 35.0034C0.967082 34.7063 0.00379208 33.4495 0 31.9777H0ZM3.00785 32.7996C3.86072 33.1718 5.21397 32.3403 6.69195 30.558C6.34335 30.4643 5.92685 30.3668 5.44616 30.2665L5.24555 30.2246C4.14676 29.996 3.23168 30.2661 2.66837 30.9858C2.42349 31.2987 2.33946 31.6964 2.43777 32.077C2.52418 32.411 2.73731 32.6813 3.00785 32.7996ZM23.8647 2.08321C23.8195 2.00563 23.7317 1.89671 23.4902 1.84643C22.6124 1.66287 22.0142 2.1596 20.7167 4.15447C19.952 5.56399 19.2403 7.17518 18.6012 8.94365L18.2573 9.99847C21.5309 7.16603 23.4665 4.35404 23.8088 3.35161C23.9927 2.8128 24.0135 2.33869 23.8647 2.08321Z" fill="black"/>
<mask id="mask0" mask-type="alpha" maskUnits="userSpaceOnUse" x="0" y="0" width="79" height="36">
<path fill-rule="evenodd" clip-rule="evenodd" d="M62.2581 29.8321H62.2328C62.107 29.8275 61.9726 29.7533 61.832 29.6C61.1632 29.0208 60.6124 27.5155 61.7533 24.7362C63.0517 21.5323 67.3009 16.2053 66.5142 15.935C66.042 15.7421 64.114 16.7843 61.596 19.4864C59.2747 21.9569 57.3861 25.5469 55.8122 29.1754C55.6549 29.5228 55.4187 29.6772 55.0648 29.3683C54.5043 28.8936 54.2264 28.1905 54.28 27.2206C52.6092 28.6307 50.4181 29.572 48.2245 29.6C45.5887 29.6408 43.8627 28.3166 43.1943 26.326C42.0363 28.3281 39.9744 29.7822 38.0096 29.6772C34.9801 29.5228 33.7604 26.9365 34.744 23.7712C35.5309 21.1849 38.0096 18.3284 39.6621 16.437C37.8916 17.5564 36.1604 17.9424 34.9015 17.9424C33.7997 19.6795 32.1867 20.9919 30.0226 21.0691C29.2357 24.3502 26.7963 28.3261 23.8849 29.2525C22.4685 29.7158 20.4224 29.6386 18.888 27.5926C17.1962 25.3152 17.7863 21.9569 19.4782 18.9074C20.9732 16.2439 23.4521 14.0822 25.8127 13.8893C26.993 13.7735 27.6226 14.1596 28.4489 15.2018C29.3932 16.3982 30.5341 16.63 30.3375 19.4478C30.3375 19.6409 30.2588 19.8338 30.2588 20.0655C31.3604 19.8724 32.5013 19.1391 33.3276 17.6721C30.4161 16.437 34.2718 11.3415 35.8457 11.303C37.2228 11.2644 36.5145 14.0822 35.7276 16.1282C37.1046 15.935 38.4817 15.2789 39.977 14.2753C40.4884 13.9279 40.8426 13.8121 41.1572 14.1982C41.8655 15.0086 42.8491 16.8229 41.6687 18.1353C39.8194 20.1813 37.9309 22.8062 37.2228 24.852C36.4752 26.9751 36.9473 28.4805 38.2064 28.5577C39.7291 28.6697 41.6569 26.2521 42.921 23.5426C43.0358 22.3802 43.4072 21.1315 44.0538 19.8724C46.6112 14.8929 50.6245 12.8855 52.5917 14.005C53.5753 14.584 54.2836 15.1632 54.913 16.0122C55.6213 16.9386 55.3065 19.2934 53.6539 21.2621C51.7261 23.5781 49.0899 24.5819 46.3358 22.3816C45.0769 25.9329 46.0211 28.3647 48.1063 28.4805C50.9453 28.6147 53.4865 26.2985 55.2138 24.0171C56.4047 21.2689 58.7652 16.9386 60.8484 13.8893C61.1239 13.4646 61.4387 13.5032 61.6747 13.8893C62.3436 14.97 62.2255 16.4756 61.6353 18.0196C63.3666 16.0508 66.3173 13.7733 67.7337 13.8121C69.0715 13.8507 69.7798 15.8965 69.2683 17.595C71.1569 15.7807 73.793 13.9665 75.0912 14.005C76.5078 14.0436 76.8225 16.3211 76.0355 18.2511C75.3274 19.9882 73.3995 22.5359 72.4159 24.4659C71.3142 26.6662 71.865 28.4419 73.2814 28.4033C74.8946 28.3647 76.6652 25.817 78.1996 23.1149C78.3964 22.7676 78.711 22.7676 78.9078 23.0377C79.1045 23.308 78.9865 24.5819 78.5537 25.4697C77.4521 27.6698 74.9339 29.6 72.6519 29.6C69.229 29.6 67.9699 26.9365 69.4257 23.7712C70.8814 20.5673 74.3831 16.2439 73.793 16.0508C73.4782 15.935 72.1405 16.3597 69.583 18.8688C66.3173 22.0727 64.3895 25.7784 62.7369 29.4069C62.6009 29.6738 62.4388 29.8254 62.2581 29.8321V29.8321ZM27.8193 19.4478C28.0554 18.3284 28.0947 17.402 28.0161 16.7457C27.8586 15.4718 26.993 15.7807 26.8357 16.9C26.7177 17.8653 27.0718 18.8303 27.8193 19.4478ZM26.088 23.7326C26.7177 22.5745 27.1898 21.5323 27.4653 20.5673C25.9307 19.7181 24.9471 18.1739 24.9078 16.7843C23.8456 17.6721 22.7438 18.946 21.8781 20.4128C20.1864 23.3466 19.6355 26.8593 20.6586 27.7472C21.6815 28.635 24.1208 27.2454 26.088 23.7326ZM47.0047 20.876C46.8867 21.1077 46.7686 21.3392 46.6899 21.5323C48.6178 22.7288 50.231 21.0691 51.3719 19.6021C52.631 17.981 53.4966 15.9736 52.9458 15.549C52.1196 14.8929 48.854 17.2089 47.0047 20.876ZM0 31.9777V31.9602C0.000404469 31.8032 0.0117348 31.6437 0.0345949 31.4827C0.258468 29.9052 1.33599 28.6758 2.99095 28.1092C4.29949 27.6616 5.7322 27.6525 7.7804 28.0796L8.2778 28.1833C9.34678 26.0572 10.711 22.7871 12.3373 18.4524L13.5609 14.9211C11.405 15.6726 8.66349 16.0697 7.65708 16.2153C7.51266 16.2363 7.40383 16.2519 7.33788 16.2628C6.78966 16.3532 6.6578 15.9594 6.63693 15.8797C6.51162 15.3995 6.95829 15.2394 7.31724 15.1106C7.53967 15.0306 7.85471 14.9233 8.22178 14.7982C9.0107 14.529 9.9929 14.1941 10.8345 13.87C11.4655 13.627 11.9148 13.4738 12.2757 13.3509C12.9332 13.1269 13.3465 12.9861 14.2455 12.5164C15.6851 8.12907 16.6985 5.5564 17.525 4.18859C18.473 2.7407 19.4459 1.68817 20.4267 1.04433C21.7097 0.139929 22.7717 -0.146339 24.0771 0.0674274C24.5733 0.148497 24.9946 0.420352 25.2955 0.853547C25.7795 1.55061 25.858 2.52381 25.7261 3.13316C25.0734 6.14549 23.2277 8.54959 19.3569 11.4288L17.3597 13.0564C15.7924 18.292 14.5172 21.9829 13.5692 24.0279C12.6996 25.8495 11.8475 27.473 11.0292 28.8686C12.1548 29.2136 14.3279 30.0346 17.6231 31.3589C17.7977 31.4261 17.9745 31.4953 18.1473 31.5626C20.0366 32.2998 21.4012 32.8324 23.6975 32.73C26.255 32.6155 28.7609 30.771 29.6493 29.5604C30.2317 28.767 30.6361 27.9646 30.9313 27.3789C31.3148 26.6181 31.5462 26.1578 32.0708 26.2685C32.2698 26.31 32.4343 26.4394 32.5342 26.6325C32.7582 27.0659 32.6542 27.915 32.4837 28.3291C31.7772 30.8412 30.2347 32.5825 29.0622 33.6027C27.1673 35.1988 24.9755 36 22.5205 36C21.6801 36.0002 20.8095 35.9063 19.9087 35.7184C18.017 35.324 15.4383 34.2861 12.2437 32.633C10.615 31.9225 9.72416 31.5974 9.23715 31.4534C6.81193 34.3414 4.63061 35.4705 2.39132 35.0034C0.967082 34.7063 0.00379208 33.4495 0 31.9777H0ZM3.00785 32.7996C3.86072 33.1718 5.21397 32.3403 6.69195 30.558C6.34335 30.4643 5.92685 30.3668 5.44616 30.2665L5.24555 30.2246C4.14676 29.996 3.23168 30.2661 2.66837 30.9858C2.42349 31.2987 2.33946 31.6964 2.43777 32.077C2.52418 32.411 2.73731 32.6813 3.00785 32.7996ZM23.8647 2.08321C23.8195 2.00563 23.7317 1.89671 23.4902 1.84643C22.6124 1.66287 22.0142 2.1596 20.7167 4.15447C19.952 5.56399 19.2403 7.17518 18.6012 8.94365L18.2573 9.99847C21.5309 7.16603 23.4665 4.35404 23.8088 3.35161C23.9927 2.8128 24.0135 2.33869 23.8647 2.08321Z" fill="white"/>
</mask>
<g mask="url(#mask0)">
</g>
</svg>
